<svg xmlns="http://www.w3.org/2000/svg" xmlns:xlink="http://www.w3.org/1999/xlink" xmlns:inkscape="http://www.inkscape.org/namespaces/inkscape" version="1.1" width="425.197" height="197.012" viewBox="0 0 425.197 197.012">
<defs>
<clipPath id="clip_1">
<path transform="matrix(1,0,0,-1,0,197.012)" d="M0 197.012H425.197V0H0Z"/>
</clipPath>
</defs>
<g inkscape:groupmode="layer" inkscape:label="Layer 1">
<g clip-path="url(#clip_1)">
<path transform="matrix(1,0,0,-1,39.7228,181.6001)" d="M0 0-4.113-1.125-1.563 14.584C-5.022 13.586-8.873 12.446-13.393 11.084L-14.646 10.708-15.672 11.521C-20.769 15.56-25.738 19.521-30.788 23.561L-31.933 24.477-18.304 107.488-17.855 108.017C-13.024 113.717-9.406 117.975-4.603 123.613L-4.132 124.167-3.437 124.382C12.677 129.37 27.933 133.467 43.201 136.908L44.481 137.197 45.827 135.959 46.002 137.56 48.963 138.181 52.254 167.751 54.022 168.128C95.982 177.068 138.417 181.6 180.148 181.6 221.15 181.6 260.699 177.195 297.695 168.507L299.417 168.102 302.787 137.836 304.612 137.443 305.173 136.559C309.832 129.231 314.311 122.217 318.524 115.654 321.182 120.452 323.906 125.437 326.504 130.201L327.449 131.934 329.356 131.42C341.808 128.063 353.793 124.461 364.977 120.714L366.409 120.234 373.388 77.706 368.923 79.157 373.925 47.991 378.514 46.501 385.474 4.093 379.25 6.065C370.949 8.698 361.69 11.635 353.355 14.118L355.83-1.128 351.716-.002 354.151-15.376 350.399-14.339C291.577 1.922 232.392 10.168 174.488 10.168 116.589 10.168 58.331 1.924 1.332-14.335L-2.445-15.412Z" fill="#fde9c8"/>
<path transform="matrix(1,0,0,-1,422.0634,173.8864)" d="M0 0-6.052 36.875-10.647 38.368-16.541 75.093-12.091 73.647-18.16 110.625C-29.767 114.514-41.802 118.097-53.637 121.287-56.88 115.343-60.345 109.001-63.663 103.065-68.749 110.974-74.076 119.313-79.282 127.501L-81.844 128.054-85.218 158.354C-162.931 176.604-248.099 174.943-327.797 157.964L-331.089 128.387-334.045 127.767-334.561 123.049C-335.079 123.525-338.011 126.22-338.589 126.75-353.747 123.334-368.796 119.302-385.036 114.275-389.838 108.638-393.455 104.382-398.285 98.684L-411.563 17.804C-406.516 13.766-401.551 9.808-396.456 5.77-391.322 7.317-385.957 8.907-380.798 10.362L-383.356-5.394-379.258-4.274-381.696-19.639C-267.023 13.071-150.227 13.248-31.273-19.638L-33.707-4.275-29.608-5.397-32.097 9.93C-22.055 7.016-10.042 3.183 0 0"/>
<path transform="matrix(1,0,0,-1,358.8816,86.978)" d="M0 0C4.641 8.154 9.204 16.333 13.702 24.567 21.715 22.355 29.702 19.946 37.602 17.359 38.813 9.983 39.418 6.295 40.629-1.081 38.873-.51 37.994-.228 36.234 .329 39.19-18.09 42.146-36.508 45.101-54.927 46.947-55.511 47.87-55.806 49.712-56.405 50.923-63.78 51.529-67.468 52.74-74.843 43.369-71.878 33.994-69.07 24.537-66.395L21.943-48.087C23.806-48.598 24.736-48.857 26.595-49.383 24.463-34.725 22.33-20.067 20.198-5.409 16.198-12.575 12.099-19.695 7.917-26.756 4.217-25.816 2.365-25.361-1.345-24.479-7.684-14.818-14.009-5.149-20.295 4.546-18.688-9.982-17.081-24.511-15.475-39.039-13.592-39.434-12.651-39.635-10.77-40.044-9.937-47.317-9.521-50.953-8.688-58.226-18.248-56.223-27.799-54.374-37.417-52.665-38.073-45.426-38.401-41.807-39.058-34.568-37.164-34.889-36.218-35.054-34.327-35.39-36.041-17.277-37.756 .836-39.471 18.949-41.273 19.27-42.175 19.426-43.98 19.733-44.636 26.972-44.964 30.592-45.62 37.831-37.478 36.468-29.342 34.909-21.273 33.166-14.222 22.085-7.134 11.028 0 0M-71.867 23.796C-80.929 24.898-85.469 25.363-94.558 26.118-94.234 18.921-94.072 15.323-93.747 8.126-84.509 7.358-79.894 6.886-70.684 5.765-71.157 12.977-71.393 16.583-71.867 23.796M-64.146 40.675C-60.32 36.576-58.394 34.511-54.515 30.349-53.775 21.311-53.035 12.273-52.294 3.235-55.67 .181-57.375-1.357-60.816-4.459-56.842-8.578-54.841-10.653-50.815-14.838-50.222-22.067-49.927-25.681-49.334-32.91-47.437-33.2-46.489-33.348-44.594-33.653-43.972-40.886-43.661-44.503-43.04-51.736-52.674-50.263-62.291-48.944-71.967-47.766-72.41-40.558-72.632-36.953-73.076-29.745-71.175-29.961-70.226-30.073-68.326-30.304-68.8-23.092-69.036-19.485-69.51-12.273-77.296-11.31-85.124-10.508-92.944-9.875-92.619-17.072-92.457-20.671-92.132-27.868-90.223-28.027-89.269-28.11-87.362-28.283-87.007-35.482-86.83-39.082-86.475-46.282-96.172-45.476-105.84-44.821-115.557-44.311-115.733-37.124-115.82-33.53-115.996-26.343-114.083-26.428-113.127-26.475-111.216-26.575-111.729-8.6-112.242 9.376-112.755 27.351-114.577 27.447-115.488 27.491-117.311 27.573-117.486 34.76-117.574 38.354-117.749 45.542-99.789 44.573-81.984 42.956-64.146 40.675M-163.755 .909C-158.973 1.062-156.581 1.116-151.797 1.176-153.711 10.119-155.596 19.066-157.452 28.021-159.525 18.977-161.626 9.94-163.755 .909M-126.346-25.972C-124.432-26.026-123.476-26.057-121.563-26.126-121.422-33.312-121.352-36.905-121.212-44.091-131.069-43.813-140.888-43.688-150.75-43.716-150.709-36.532-150.688-32.94-150.647-25.757-148.733-25.736-147.776-25.73-145.863-25.725-146.674-22.132-147.077-20.336-147.876-16.746-155.976-16.796-160.026-16.887-168.121-17.2-169.004-20.828-169.448-22.642-170.343-26.273-168.435-26.193-167.48-26.157-165.571-26.091-165.705-33.277-165.772-36.87-165.907-44.055-175.763-44.47-185.571-45.035-195.41-45.754-195.094-38.558-194.936-34.96-194.62-27.763-192.711-27.609-191.756-27.535-189.846-27.396-183.546-3.164-177.495 21.123-171.702 45.481-162.038 45.853-152.426 46.068-142.755 46.13-137.55 22.033-132.078-1.996-126.346-25.972M-238.214 20.709C-240.02 20.421-240.923 20.273-242.728 19.971-243.375 12.734-243.698 9.116-244.345 1.878-235.179 3.413-230.585 4.091-221.38 5.273-220.881 12.488-220.632 16.095-220.133 23.311-221.942 23.079-222.846 22.959-224.654 22.713-224.126 29.933-223.862 33.543-223.333 40.762-214.451 41.994-205.504 43.003-196.571 43.782-196.921 36.582-197.096 32.982-197.446 25.783-199.265 25.62-200.174 25.534-201.991 25.358-202.941 7.349-203.89-10.659-204.84-28.667-202.933-28.481-201.979-28.392-200.072-28.221-200.422-35.42-200.597-39.019-200.947-46.219-210.64-47.162-220.279-48.25-229.939-49.489-229.41-42.27-229.146-38.66-228.618-31.441-226.718-31.183-225.768-31.057-223.866-30.813-223.368-23.597-223.118-19.989-222.62-12.774-230.414-13.758-238.209-14.91-245.955-16.222-246.602-23.46-246.925-27.079-247.572-34.316-245.678-33.999-244.731-33.844-242.835-33.542-243.452-40.774-243.761-44.391-244.378-51.623-254.007-53.159-263.6-54.916-273.148-56.892-272.354-49.628-271.957-45.995-271.163-38.73-269.279-38.34-268.337-38.149-266.451-37.774-264.538-19.623-262.626-1.473-260.714 16.677-262.511 16.32-263.41 16.137-265.205 15.766-264.411 23.031-264.014 26.663-263.219 33.929-254.424 35.773-245.548 37.398-236.67 38.791-237.288 31.559-237.596 27.942-238.214 20.709M-317.078 20.094C-304.114 24.058-291.026 27.659-277.815 30.713-274.745 27.892-273.192 26.471-270.053 23.607-270.99 15.424-271.459 11.332-272.396 3.149-279.635 1.575-283.245 .731-290.445-1.068-289.851 3.495-289.554 5.777-288.96 10.341-297.867 8.115-302.305 6.915-311.141 4.342-313.881-14.013-316.62-32.368-319.359-50.723-311.655-48.463-303.881-46.36-296.087-44.429-295.493-39.862-295.196-37.578-294.602-33.011-287.197-31.161-283.484-30.293-276.04-28.674-276.977-36.861-277.446-40.954-278.383-49.141-282.59-53.602-284.706-55.85-288.961-60.383-303.26-63.839-317.403-67.664-331.496-71.887-334.673-69.365-336.243-68.114-339.348-65.632-335.311-41.042-331.274-16.452-327.237 8.139-323.151 12.958-321.119 15.349-317.078 20.094" fill="#ffcb04"/>
<path transform="matrix(1,0,0,-1,109.1543,122.97659)" d="M0 0C-.089-.974-.183-2-.286-3.12-.41-4.479 .641-5.381 2.064-5.143 2.788-5.022 3.223-4.95 3.846-4.848 3.961-3.526 4.086-2.108 4.234-.417 3.366-.559 2.932-.631 2.064-.776 1.15-.929 .394-.607 0 0M42.614 6.081C42.552 4.957 42.49 3.832 42.428 2.708 42.354 1.356 43.454 .379 44.887 .518 45.677 .595 46.125 .638 46.847 .706 46.914 2.016 46.985 3.421 47.07 5.094 46.197 5.012 45.76 4.97 44.887 4.885 43.841 4.784 42.977 5.281 42.614 6.081M-37.057 44.021C-37.304 42.091-37.512 40.472-37.826 38.015-37.628 38.064-37.44 38.109-37.249 38.156-37.079 39.48-36.909 40.808-36.684 42.572-36.606 43.181-36.757 43.677-37.057 44.021M27.835 61.493C27.951 61.508 28.046 61.521 28.148 61.534 28.346 64.331 28.514 66.691 28.768 70.266 37.462 71.413 41.862 71.91 50.51 72.723 50.576 74.033 50.648 75.438 50.733 77.111 41.933 76.285 37.539 75.79 28.768 74.633 28.395 69.377 28.208 66.749 27.835 61.493M-66.637 53.893C-70.04 49.907-71.749 47.901-75.183 43.864-79.056 19.981-82.929-3.901-86.802-27.783-86.581-27.961-86.38-28.122-86.175-28.286-82.511-5.691-78.847 16.903-75.183 39.497-71.749 43.534-70.04 45.54-66.637 49.526-54.239 53.201-41.813 56.563-29.253 59.637-26.827 57.417-25.515 56.22-23.189 54.103-23.049 55.31-22.898 56.6-22.729 58.051-25.362 60.447-26.667 61.638-29.253 64.004-41.813 60.929-54.239 57.568-66.637 53.893M200.723 .633C199.297 .851 198.054 2.121 197.946 3.477 197.402 10.297 197.131 13.706 196.587 20.526 193.008 24.234 191.153 26.152 187.731 29.689 187.533 29.51 187.345 29.34 187.134 29.148 186.22 28.323 186.329 26.771 187.384 25.681 191.042 21.9 192.884 19.996 196.587 16.159 197.131 9.339 197.402 5.93 197.946-.89 198.054-2.246 199.297-3.516 200.723-3.734 201.592-3.867 202.026-3.934 202.895-4.07 203.194-7.648 203.392-10.011 203.627-12.81 203.75-12.829 203.874-12.847 203.997-12.866 203.556-7.601 203.335-4.968 202.895 .297 202.026 .433 201.592 .5 200.723 .633M-43.691-7.802C-43.867-9.171-45.149-10.56-46.554-10.911-54.364-12.846-62.155-14.953-69.875-17.218-70.599-17.429-71.201-17.314-71.588-16.967-71.733-17.921-71.877-18.876-72.021-19.83-72.23-21.208-71.27-21.991-69.875-21.585-62.155-19.32-54.364-17.213-46.554-15.278-45.149-14.927-43.867-13.538-43.691-12.169-43.234-8.595-43.005-6.809-42.548-3.235-37.318-1.951-34.604-1.315-29.522-.186-29.364 1.172-29.193 2.632-28.999 4.298-34.429 3.093-37.139 2.459-42.548 1.132-43.005-2.442-43.234-4.228-43.691-7.802M77.548 8.02C77.377 7.329 77.195 6.594 76.986 5.754 76.805 5.026 76.978 4.284 77.458 3.734 77.937 3.184 78.672 2.884 79.457 2.917 80.295 2.952 80.739 2.97 81.546 3.001 81.573 4.306 81.603 5.706 81.637 7.372 80.765 7.338 80.329 7.321 79.457 7.284 78.716 7.253 78.027 7.527 77.548 8.02M234.654-5.509C233.239-5.213 231.972-3.873 231.824-2.511 230.358 11.012 228.892 24.534 227.426 38.057 227.165 37.705 227.042 37.232 227.101 36.688 228.675 22.166 230.25 7.644 231.824-6.878 231.972-8.24 233.239-9.58 234.654-9.876 235.517-10.057 235.948-10.148 236.81-10.332 237.213-13.918 237.48-16.291 237.794-19.094 237.962-19.13 238.13-19.164 238.297-19.2 237.702-13.906 237.405-11.259 236.81-5.965 235.948-5.781 235.517-5.69 234.654-5.509M123.548 7.586C122.32 7.62 121.248 8.451 120.978 9.584 115.446 32.898 110.16 56.262 105.128 79.689 96.781 79.698 88.404 79.511 80.065 79.127 74.461 55.447 68.612 31.834 62.526 8.274 62.229 7.128 61.139 6.249 59.912 6.159 59.038 6.095 58.6 6.062 57.726 5.995 57.507 .756 57.398-1.864 57.18-7.104 57.241-7.099 57.302-7.095 57.363-7.09 57.479-4.296 57.577-1.941 57.726 1.628 58.6 1.695 59.038 1.728 59.912 1.792 61.139 1.882 62.229 2.761 62.526 3.907 68.612 27.467 74.461 51.08 80.065 74.76 88.404 75.144 96.781 75.331 105.128 75.322 110.16 51.895 115.446 28.531 120.978 5.217 121.248 4.084 122.32 3.253 123.548 3.219 124.424 3.194 124.862 3.181 125.739 3.153 125.801-.414 125.841-2.767 125.889-5.56 125.915-5.561 125.94-5.561 125.965-5.562 125.875-.329 125.829 2.287 125.739 7.52 124.862 7.548 124.424 7.561 123.548 7.586M84.1 30.938C84.571 30.382 85.291 30.074 86.058 30.099 90.851 30.253 93.248 30.307 98.042 30.368 98.809 30.377 99.538 30.718 100.023 31.295 100.509 31.872 100.698 32.625 100.542 33.344 100.373 34.126 100.211 34.91 100.043 35.692 100.035 35.682 100.031 35.671 100.023 35.662 99.538 35.085 98.809 34.744 98.042 34.735 93.248 34.674 90.851 34.62 86.058 34.466 85.323 34.442 84.636 34.731 84.166 35.244 83.986 34.485 83.812 33.724 83.631 32.965 83.457 32.238 83.629 31.494 84.1 30.938M103.99 3.467C104.775 3.469 105.52 3.802 106.013 4.375 106.508 4.947 106.698 5.698 106.533 6.419 106.337 7.279 106.166 8.032 106.006 8.735 105.512 8.167 104.772 7.836 103.99 7.834 103.113 7.831 102.675 7.829 101.798 7.824 101.78 2.592 101.771-.023 101.753-5.255 101.758-5.255 101.763-5.255 101.768-5.255 101.778-2.462 101.786-.11 101.798 3.457 102.675 3.462 103.113 3.464 103.99 3.467M157.834 5.686C156.4 5.805 155.19 6.991 155.133 8.34 154.878 14.282 154.728 17.776 154.51 22.862 154.403 22.589 154.348 22.287 154.362 21.964 154.67 14.768 154.824 11.17 155.133 3.973 155.19 2.624 156.4 1.438 157.834 1.319 158.708 1.246 159.145 1.209 160.019 1.133 160.187-2.437 160.298-4.792 160.429-7.587 160.498-7.593 160.566-7.598 160.635-7.604 160.389-2.363 160.266 .258 160.019 5.5 159.145 5.576 158.708 5.613 157.834 5.686M218.096-4.22 217.797-1.136C217.401-1.715 216.657-2.011 215.762-1.852 214.896-1.698 214.463-1.622 213.596-1.471 213.753-3.165 213.885-4.585 214.008-5.91 214.617-6.016 215.049-6.092 215.762-6.219 217.184-6.472 218.228-5.58 218.096-4.22M227.53 62.61C234.307 51.997 241.114 41.403 247.948 30.825 248.487 29.992 249.329 29.361 250.174 29.153 251.019 28.945 251.747 29.19 252.1 29.804 256.543 37.615 260.966 45.431 265.23 53.342 273.378 51.051 277.437 49.832 285.518 47.243 286.103 43.637 286.491 41.241 286.947 38.43 287.17 38.359 287.403 38.284 287.694 38.191 286.823 43.559 286.388 46.243 285.518 51.61 277.437 54.199 273.378 55.418 265.23 57.709 260.966 49.798 256.543 41.982 252.1 34.171 251.747 33.557 251.019 33.312 250.174 33.52 249.329 33.727 248.487 34.359 247.948 35.192 241.114 45.77 234.307 56.364 227.53 66.977 219.289 68.717 215.157 69.513 206.873 70.955 207.03 69.262 207.162 67.841 207.285 66.517 215.29 65.12 219.43 64.321 227.53 62.61M283.7 32.711C286.617 14.305 289.534-4.101 292.45-22.507 292.669-23.888 293.972-25.358 295.359-25.797 296.205-26.065 296.627-26.199 297.472-26.47 298.057-30.076 298.446-32.473 298.901-35.284 299.15-35.364 299.4-35.441 299.648-35.521 298.778-30.154 298.342-27.47 297.472-22.103 296.627-21.832 296.205-21.698 295.359-21.43 293.972-20.991 292.669-19.521 292.45-18.141 289.682-.668 286.913 16.804 284.144 34.277 283.769 33.963 283.589 33.416 283.7 32.711M278.973-18.47C278.831-17.511 278.69-16.552 278.548-15.592 278.159-15.955 277.55-16.083 276.813-15.875 275.962-15.634 275.536-15.514 274.684-15.277 274.933-17.016 275.142-18.469 275.337-19.826 275.817-19.96 276.21-20.071 276.813-20.242 278.21-20.637 279.176-19.847 278.973-18.47M184.888 69.99C188.109 66.549 189.729 64.817 192.988 61.331L194.661 40.332C194.771 40.432 194.871 40.522 194.985 40.626 194.319 48.983 193.653 57.341 192.988 65.698 189.729 69.184 188.109 70.916 184.888 74.357 168.178 76.486 151.438 78.202 134.605 78.985 134.65 77.318 134.687 75.917 134.722 74.612 151.515 73.826 168.217 72.114 184.888 69.99M-19.013-9.042C-18.15-8.867-17.718-8.78-16.854-8.608-15.438-8.326-14.175-6.999-14.034-5.638-12.162 12.504-10.29 30.647-8.417 48.789-8.362 49.325-8.484 49.783-8.729 50.132-10.498 32.997-12.266 15.863-14.034-1.271-14.175-2.632-15.438-3.959-16.854-4.241-17.718-4.413-18.15-4.5-19.013-4.675-19.58-9.963-19.863-12.607-20.43-17.895-20.271-17.862-20.111-17.832-19.952-17.799-19.652-14.997-19.397-12.626-19.013-9.042M-11.23 63.585C-2.671 65.319 1.696 66.121 10.171 67.512 10.287 68.834 10.411 70.252 10.559 71.942 1.821 70.511-2.538 69.713-11.23 67.952-11.797 62.663-12.08 60.019-12.647 54.73-12.469 54.766-12.316 54.797-12.168 54.827-11.868 57.629-11.614 60-11.23 63.585M5.291 31.051C14.477 32.589 19.082 33.269 28.307 34.453 29.692 34.631 30.887 35.867 30.978 37.22 31.46 44.433 31.702 48.04 32.184 55.253 32.212 55.667 32.125 56.038 31.966 56.357 31.617 51.143 31.382 47.625 30.978 41.587 30.887 40.234 29.692 38.998 28.307 38.82 19.082 37.636 14.477 36.956 5.291 35.418 4.415 35.272 3.688 35.588 3.305 36.185 3.216 35.218 3.123 34.199 3.021 33.088 2.897 31.73 3.913 30.821 5.291 31.051M156.219 37.313C165.478 36.543 170.102 36.07 179.333 34.947 180.719 34.778 181.766 35.734 181.675 37.087 181.595 38.264 181.522 39.338 181.453 40.354 181.085 39.629 180.296 39.197 179.333 39.314 170.102 40.437 165.478 40.91 156.219 41.679 154.83 41.795 153.657 42.978 153.599 44.328 153.344 50.276 153.194 53.771 152.976 58.868 152.868 58.589 152.814 58.28 152.828 57.95 153.136 50.754 153.291 47.156 153.599 39.961 153.657 38.611 154.83 37.428 156.219 37.313M141.235 4.915C141.198 6.126 141.161 7.338 141.123 8.549 140.818 7.584 139.87 6.921 138.71 6.981 137.835 7.027 137.397 7.049 136.521 7.092 136.565 5.425 136.603 4.025 136.637 2.72 137.431 2.681 137.878 2.658 138.71 2.614 140.147 2.539 141.277 3.566 141.235 4.915M184.113 1.008C184.032 2.191 183.959 3.271 183.89 4.292 183.512 3.559 182.692 3.122 181.691 3.244 180.823 3.35 180.389 3.402 179.521 3.504 179.628 1.826 179.718 .417 179.802-.896 180.484-.977 180.928-1.03 181.691-1.123 183.121-1.297 184.204-.346 184.113 1.008M23.645-1.916C23.391-5.49 23.223-7.851 23.025-10.648 22.921-10.662 22.816-10.674 22.712-10.688 23.085-5.432 23.271-2.804 23.645 2.451 24.515 2.566 24.95 2.623 25.82 2.734 27.25 2.918 28.481 4.158 28.572 5.511 28.975 11.543 29.211 15.06 29.559 20.266 29.718 19.95 29.806 19.586 29.778 19.179L28.572 1.144C28.481-.209 27.25-1.449 25.82-1.633 24.95-1.744 24.515-1.801 23.645-1.916" fill="#360201"/>
<path transform="matrix(1,0,0,-1,343.8086,132.85289)" d="M0 0C-1.415 .296-2.682 1.636-2.83 2.999-4.405 17.521-5.979 32.043-7.553 46.565-7.613 47.108-7.49 47.582-7.229 47.933-7.337 48.933-7.445 49.932-7.553 50.932-7.673 52.032-7.051 52.852-6.031 52.936-5.815 52.954-5.59 52.937-5.366 52.89-4.535 52.716-3.694 52.121-3.153 51.288 2.848 42.021 8.879 32.773 14.934 23.541 17.527 22.919 18.822 22.6 21.408 21.95 25.403 28.704 29.321 35.513 33.149 42.363 33.495 42.978 34.217 43.188 35.037 42.956 35.259 42.894 35.489 42.798 35.719 42.67 36.803 42.069 37.663 40.885 37.827 39.773 39.991 25.107 42.155 10.44 44.319-4.227 44.415-4.878 44.242-5.391 43.894-5.716 44.035-6.675 44.177-7.635 44.319-8.594 44.522-9.97 43.555-10.761 42.159-10.365 41.555-10.195 41.162-10.084 40.683-9.95 41.087-12.757 41.429-15.144 41.947-18.741 49.417-20.809 56.865-23.039 64.247-25.408 63.791-22.597 63.403-20.2 62.818-16.594 61.973-16.323 61.55-16.189 60.705-15.921 59.318-15.482 58.015-14.012 57.796-12.631 54.879 5.775 51.963 24.181 49.046 42.587 48.935 43.292 49.115 43.839 49.49 44.153L49.046 46.954C48.827 48.335 49.718 49.122 51.034 48.706 51.546 48.544 51.899 48.432 52.293 48.306 51.837 51.117 51.448 53.514 50.864 57.12 42.782 59.708 38.723 60.928 30.576 63.218 26.312 55.308 21.889 47.491 17.446 39.68 17.093 39.067 16.365 38.821 15.519 39.029 14.675 39.237 13.832 39.868 13.293 40.701 6.46 51.279-.347 61.873-7.124 72.487-15.224 74.197-19.365 74.996-27.369 76.393-27.11 73.593-26.89 71.227-26.557 67.647-25.735 67.503-25.324 67.431-24.502 67.285-23.153 67.045-21.954 65.744-21.823 64.384-20.068 46.264-18.313 28.143-16.558 10.023-16.51 9.52-16.624 9.081-16.857 8.74L-16.558 5.656C-16.427 4.297-17.471 3.405-18.892 3.657-19.605 3.784-20.037 3.86-20.646 3.966-20.386 1.167-20.167-1.199-19.834-4.779-12.154-6.1-4.481-7.585 3.14-9.218 2.825-6.415 2.558-4.042 2.156-.456 1.293-.272 .863-.181 0 0M-134.612 45.568C-134.143 46.142-133.959 46.88-134.113 47.588-136.045 56.538-137.949 65.493-139.824 74.456-140.057 75.577-141.055 76.363-142.22 76.337-143.386 76.311-144.404 75.479-144.663 74.346-146.756 65.293-148.875 56.248-151.023 47.208-151.197 46.481-151.025 45.737-150.554 45.181-150.535 45.158-150.509 45.142-150.489 45.12-150.669 44.361-150.843 43.6-151.023 42.841-151.197 42.114-151.025 41.37-150.554 40.814-150.083 40.259-149.363 39.951-148.596 39.975-143.803 40.13-141.407 40.183-136.613 40.244-135.845 40.254-135.116 40.594-134.632 41.171-134.146 41.749-133.956 42.501-134.113 43.221-134.282 44.003-134.443 44.786-134.612 45.568M-108.916 13.029C-108.854 9.462-108.813 7.11-108.765 4.317-116.794 4.587-124.852 4.689-132.886 4.622-132.876 7.415-132.868 9.766-132.856 13.333-131.98 13.338-131.541 13.34-130.665 13.343-129.879 13.345-129.135 13.679-128.641 14.251-128.147 14.824-127.957 15.575-128.121 16.295-128.317 17.155-128.488 17.908-128.648 18.612-128.646 18.614-128.643 18.616-128.641 18.618-128.147 19.191-127.957 19.942-128.121 20.662-128.94 24.258-129.347 26.056-130.154 29.649-130.407 30.774-131.453 31.576-132.667 31.569-140.749 31.519-144.79 31.429-152.868 31.116-154.082 31.069-155.148 30.218-155.428 29.08-156.318 25.449-156.766 23.632-157.668 19.998-157.849 19.27-157.677 18.528-157.197 17.977-157.17 17.946-157.135 17.925-157.106 17.896-157.277 17.206-157.46 16.47-157.668 15.631-157.849 14.903-157.677 14.161-157.197 13.61-156.717 13.06-155.983 12.761-155.198 12.793-154.359 12.829-153.915 12.846-153.108 12.878-153.167 10.084-153.216 7.732-153.291 4.165-161.292 3.873-169.309 3.412-177.292 2.786-177.175 5.581-177.077 7.935-176.929 11.505-176.054 11.572-175.617 11.604-174.742 11.668-173.516 11.758-172.426 12.637-172.128 13.783-166.042 37.344-160.193 60.957-154.589 84.637-146.251 85.02-137.873 85.208-129.526 85.198-124.494 61.771-119.209 38.407-113.677 15.093-113.407 13.96-112.335 13.13-111.106 13.095-110.23 13.07-109.792 13.057-108.916 13.029M-53.201 50.231C-53.04 50.549-52.952 50.917-52.98 51.33-53.469 58.544-53.714 62.151-54.203 69.366-54.295 70.719-55.469 71.955-56.826 72.12-65.868 73.221-70.398 73.684-79.467 74.438-80.828 74.551-81.884 73.543-81.826 72.193-81.773 70.946-81.724 69.812-81.678 68.744-81.786 68.466-81.841 68.157-81.826 67.826-81.518 60.63-81.364 57.033-81.055 49.837-80.998 48.487-79.825 47.304-78.435 47.189-69.177 46.419-64.552 45.946-55.321 44.823-53.936 44.654-52.888 45.61-52.98 46.963-53.06 48.14-53.132 49.214-53.201 50.231M-31.76 5.807C-31.46 2.229-31.262-.135-31.028-2.933-38.755-1.715-46.527-.649-54.296 .253-54.524 3.826-54.674 6.185-54.853 8.981-54.17 8.9-53.727 8.846-52.964 8.754-51.534 8.58-50.45 9.531-50.542 10.884-50.622 12.067-50.695 13.147-50.764 14.168-50.603 14.482-50.514 14.845-50.542 15.251-51.031 22.466-51.276 26.073-51.765 33.287-51.857 34.641-53.067 35.882-54.469 36.052-62.238 37.013-70.049 37.813-77.852 38.445-79.258 38.562-80.351 37.557-80.293 36.207-80.239 34.953-80.19 33.812-80.144 32.739-80.251 32.465-80.307 32.164-80.293 31.84-79.985 24.644-79.83 21.046-79.522 13.85-79.464 12.5-78.255 11.314-76.821 11.195-75.946 11.122-75.509 11.085-74.635 11.01-74.467 7.439-74.357 5.084-74.225 2.289-82.06 2.98-89.929 3.513-97.784 3.882-97.88 7.45-97.942 9.802-98.017 12.596-97.224 12.557-96.776 12.534-95.944 12.491-94.508 12.415-93.377 13.443-93.419 14.791-93.456 16.003-93.494 17.214-93.531 18.426-93.458 18.656-93.411 18.898-93.419 19.158-93.973 37.136-94.526 55.113-95.08 73.091-95.121 74.44-96.26 75.596-97.623 75.668-98.454 75.712-98.869 75.733-99.7 75.773-99.795 79.341-99.858 81.694-99.933 84.488-83.14 83.702-66.438 81.99-49.767 79.867-46.546 76.425-44.926 74.693-41.667 71.207L-39.994 50.208C-42.886 47.584-44.469 46.151-47.521 43.392-48.434 42.566-48.325 41.014-47.271 39.924-47.148 39.797-47.042 39.688-46.923 39.565-47.121 39.386-47.309 39.216-47.521 39.025-48.434 38.199-48.325 36.647-47.271 35.557-43.612 31.776-41.771 29.872-38.067 26.035-37.524 19.216-37.252 15.806-36.708 8.986-36.6 7.63-35.357 6.36-33.932 6.142-33.063 6.01-32.628 5.942-31.76 5.807M-206.506 71.41C-205.886 71.492-205.468 71.546-204.762 71.637-203.405 71.811-202.379 70.849-202.47 69.496-202.549 68.321-202.62 67.248-202.688 66.233-202.529 65.914-202.442 65.544-202.47 65.129-202.953 57.916-203.194 54.309-203.676 47.096-203.767 45.743-204.963 44.507-206.347 44.329-215.573 43.146-220.177 42.465-229.363 40.928-230.742 40.697-231.757 41.606-231.633 42.964-231.531 44.076-231.438 45.095-231.349 46.062-231.569 46.404-231.678 46.836-231.633 47.331-230.97 54.571-230.639 58.191-229.976 65.431-229.851 66.789-228.657 68.079-227.306 68.305-226.484 68.443-226.072 68.511-225.249 68.646-224.935 72.224-224.728 74.589-224.483 77.388-232.958 75.997-237.325 75.196-245.884 73.461-246.268 69.876-246.522 67.505-246.823 64.703-246.291 64.811-245.894 64.89-245.252 65.018-243.908 65.286-242.931 64.394-243.072 63.033-243.176 62.024-243.28 61.016-243.384 60.008-243.139 59.66-243.016 59.201-243.072 58.666-244.944 40.523-246.816 22.381-248.688 4.238-248.829 2.877-250.092 1.55-251.509 1.268-252.373 1.096-252.804 1.01-253.668 .835-254.052-2.75-254.306-5.121-254.606-7.923-246.964-6.366-239.272-4.958-231.574-3.713-231.261-.134-231.053 2.23-230.809 5.029-231.432 4.926-231.867 4.854-232.59 4.733-234.013 4.495-235.064 5.398-234.94 6.756-234.837 7.876-234.744 8.903-234.654 9.876-234.874 10.214-234.985 10.638-234.94 11.123-234.277 18.363-233.946 21.984-233.283 29.224-233.158 30.582-231.928 31.878-230.533 32.111-222.804 33.421-215.026 34.57-207.249 35.552-205.848 35.732-204.785 34.775-204.876 33.422-204.955 32.24-205.027 31.162-205.095 30.142-204.936 29.827-204.849 29.462-204.876 29.055L-206.082 11.021C-206.173 9.667-207.405 8.427-208.834 8.244-209.704 8.132-210.14 8.075-211.01 7.961-211.264 4.386-211.431 2.026-211.63-.771-203.862 .264-196.053 1.144-188.251 1.861-188.069 5.432-187.949 7.788-187.807 10.582-188.529 10.515-188.977 10.472-189.767 10.395-191.2 10.255-192.3 11.232-192.226 12.584-192.164 13.708-192.102 14.833-192.041 15.957-192.175 16.253-192.246 16.586-192.226 16.951-191.236 34.963-190.246 52.975-189.256 70.987-189.182 72.338-188.02 73.547-186.66 73.679-185.832 73.76-185.417 73.799-184.589 73.877-184.407 77.448-184.287 79.804-184.145 82.599-192.792 81.786-197.192 81.289-205.886 80.143-206.14 76.568-206.308 74.207-206.506 71.41M-263.907 69.514C-261.481 67.294-260.169 66.096-257.844 63.98-258.362 59.539-258.74 56.294-259.363 50.956-264.421 49.834-267.048 49.222-271.903 48.033-271.734 49.356-271.564 50.684-271.338 52.448-271.26 53.057-271.412 53.553-271.711 53.897-271.6 54.771-271.48 55.703-271.338 56.815-271.163 58.184-272.102 59.029-273.436 58.696-282.323 56.475-286.75 55.278-295.568 52.711-296.891 52.325-298.131 50.891-298.34 49.513-301.118 31.146-303.897 12.78-306.676-5.587-306.776-6.25-306.601-6.769-306.242-7.091-306.387-8.045-306.531-9-306.676-9.954-306.884-11.332-305.924-12.115-304.53-11.709-296.809-9.443-289.018-7.336-281.208-5.402-279.803-5.05-278.521-3.661-278.346-2.292-277.888 1.281-277.66 3.068-277.202 6.641-271.972 7.925-269.258 8.561-264.176 9.691-264.664 5.513-265.036 2.32-265.634-2.807-269.173-6.572-270.951-8.467-274.525-12.284-288.086-15.446-301.528-19.14-314.849-23.19-317.291-21.242-318.617-20.183-320.83-18.409-317.166 4.185-313.501 26.779-309.837 49.373-306.403 53.411-304.694 55.417-301.291 59.403-288.893 63.078-276.468 66.439-263.907 69.514" fill="#501112"/>
<path transform="matrix(1,0,0,-1,382.1271,167.797)" d="M0 0C-1.847 .505-2.772 .755-4.622 1.246-4.687 1.658-4.72 1.864-4.785 2.276-5.016 2.338-5.132 2.368-5.363 2.429-4.585-2.512-4.195-4.982-3.417-9.923-2.949-10.047-2.715-10.109-2.247-10.233-1.986-11.88-1.855-12.704-1.594-14.351-3.941-13.725-6.294-13.113-8.645-12.515-8.895-10.871-9.02-10.049-9.27-8.405-8.801-8.524-8.567-8.584-8.098-8.704-8.854-3.769-9.232-1.301-9.988 3.634-10.22 3.693-10.336 3.723-10.567 3.782-10.505 3.37-10.473 3.164-10.41 2.753-12.265 3.226-13.193 3.46-15.05 3.919-15.355 5.973-15.507 7-15.812 9.054-10.808 7.817-5.817 6.517-.837 5.155-.502 3.093-.335 2.062 0 0M-29.731 12.328C-25.558 11.396-23.474 10.912-19.314 9.909-18.27 8.865-17.747 8.342-16.699 7.293-16.427 5.446-16.291 4.522-16.019 2.674-17.88 3.13-18.811 3.355-20.675 3.797-20.821 4.822-20.894 5.335-21.041 6.361-23.363 6.911-24.525 7.181-26.851 7.71-26.177 2.794-25.839 .336-25.165-4.58-22.81-5.115-21.634-5.388-19.284-5.946-19.43-4.919-19.503-4.406-19.65-3.38-17.773-3.825-16.836-4.051-14.962-4.511-14.69-6.359-14.554-7.283-14.282-9.132-15.103-9.722-15.514-10.017-16.34-10.61-20.584-9.587-22.71-9.093-26.967-8.143-28.024-7.113-28.551-6.599-29.604-5.574-30.474 .973-30.909 4.247-31.778 10.794-30.957 11.409-30.548 11.716-29.731 12.328M-33.07 8.095C-34.937 8.499-35.871 8.698-37.74 9.087-37.791 9.496-37.817 9.701-37.869 10.11-40.202 10.596-41.37 10.834-43.706 11.298-43.509 9.666-43.41 8.85-43.212 7.217-40.396 6.658-38.99 6.37-36.179 5.779-35.97 4.143-35.865 3.325-35.656 1.69-38.478 2.284-39.891 2.573-42.718 3.134-42.52 1.502-42.421 .685-42.223-.947-39.859-1.417-38.677-1.657-36.316-2.15-36.367-1.741-36.393-1.537-36.445-1.129-34.557-1.522-33.614-1.723-31.728-2.131-31.46-4.176-31.326-5.198-31.058-7.244-36.584-6.048-42.12-4.927-47.668-3.879-47.857-2.248-47.951-1.433-48.139 .197-47.665 .108-47.428 .063-46.954-.028-47.429 4.05-47.905 8.129-48.38 12.206-48.849 12.296-49.083 12.34-49.551 12.429-49.74 14.06-49.834 14.876-50.022 16.507-44.583 15.48-39.158 14.381-33.74 13.209-33.472 11.163-33.338 10.141-33.07 8.095M-58.691 18.081C-56.356 17.674-54.022 17.254-51.691 16.82-51.505 15.19-51.413 14.375-51.227 12.744-51.694 12.831-51.928 12.875-52.396 12.961-51.753 7.255-51.431 4.402-50.788-1.303-51.646-1.943-52.075-2.264-52.937-2.907-57.222-2.135-59.367-1.767-63.662-1.068-64.697-.1-65.214 .383-66.246 1.347-66.426 3.177-66.515 4.091-66.694 5.921-64.798 5.62-63.85 5.466-61.955 5.15-61.851 4.133-61.798 3.624-61.694 2.607-59.319 2.212-58.133 2.008-55.761 1.59-56.289 6.476-56.554 8.919-57.082 13.805-57.551 13.888-57.786 13.929-58.255 14.011-58.429 15.639-58.516 16.453-58.691 18.081M-73.884 16.534C-76.236 16.883-77.412 17.052-79.766 17.379-79.347 12.51-79.137 10.075-78.718 5.206-76.336 4.875-75.145 4.704-72.766 4.35-73.213 9.224-73.437 11.66-73.884 16.534M-69.38 17.849C-68.753 11.347-68.44 8.096-67.813 1.594-68.687 .93-69.126 .598-70.004-.069-74.304 .587-76.456 .896-80.763 1.478-81.788 2.418-82.3 2.887-83.321 3.823-83.85 10.311-84.114 13.555-84.642 20.043-83.768 20.73-83.332 21.073-82.462 21.758-78.24 21.187-76.131 20.884-71.916 20.242-70.903 19.287-70.396 18.808-69.38 17.849M-91.919 18.948C-94.277 19.229-95.457 19.364-97.817 19.623-97.706 18.004-97.651 17.194-97.54 15.575-95.171 15.316-93.986 15.18-91.618 14.898-91.738 16.518-91.799 17.328-91.919 18.948M-89.871 22.714C-88.87 21.788-88.369 21.324-87.364 20.394-87.173 17.962-87.077 16.746-86.885 14.314-87.768 13.623-88.21 13.277-89.096 12.583-88.086 11.656-87.58 11.192-86.566 10.261-86.438 8.64-86.374 7.829-86.247 6.208-85.769 6.147-85.531 6.117-85.053 6.055-84.924 4.434-84.859 3.624-84.73 2.003-87.123 2.311-89.52 2.606-91.916 2.887-92.035 4.506-92.094 5.316-92.212 6.936-91.735 6.88-91.497 6.852-91.02 6.795-91.14 8.415-91.2 9.226-91.321 10.846-93.698 11.129-94.887 11.265-97.266 11.526-97.155 9.907-97.1 9.097-96.989 7.478-96.511 7.426-96.272 7.399-95.794 7.346-95.681 5.727-95.625 4.917-95.513 3.298-97.91 3.566-100.309 3.82-102.711 4.06-102.812 5.678-102.862 6.487-102.963 8.105-102.485 8.057-102.245 8.033-101.767 7.984-102.076 12.839-102.23 15.267-102.54 20.122-103.012 20.171-103.249 20.195-103.722 20.242-103.823 21.86-103.874 22.669-103.975 24.287-99.268 23.816-94.566 23.292-89.871 22.714M-115.88 21.341C-115.798 19.725-115.757 18.917-115.676 17.3-113.301 17.109-112.114 17.008-109.741 16.794-109.832 18.411-109.878 19.219-109.969 20.836-112.332 21.049-113.515 21.15-115.88 21.341M-107.843 24.663C-106.854 23.765-106.359 23.316-105.367 22.414-105.169 19.178-105.071 17.56-104.873 14.324-105.775 13.608-106.226 13.249-107.131 12.53-110.466 12.843-112.134 12.989-115.472 13.258-115.39 11.641-115.35 10.833-115.268 9.217-114.789 9.178-114.549 9.159-114.07 9.119-113.986 7.503-113.945 6.695-113.861 5.078-116.264 5.277-118.67 5.461-121.074 5.633-121.146 7.248-121.182 8.056-121.254 9.671-120.775 9.637-120.536 9.62-120.057 9.585-120.242 13.624-120.427 17.666-120.612 21.704-121.085 21.739-121.321 21.756-121.794 21.789-121.866 23.405-121.902 24.213-121.974 25.829-117.261 25.493-112.549 25.104-107.843 24.663M-133.431 21.501C-135.328 21.601-136.276 21.647-138.173 21.732-138.184 22.136-138.19 22.338-138.201 22.742-138.438 22.753-138.557 22.758-138.794 22.769-138.66 17.926-138.593 15.505-138.459 10.662-137.979 10.641-137.739 10.63-137.259 10.608-137.213 8.994-137.189 8.187-137.143 6.573-139.55 6.684-141.959 6.781-144.366 6.864-144.401 8.478-144.419 9.284-144.454 10.898-143.974 10.881-143.734 10.873-143.254 10.855-143.365 15.697-143.421 18.118-143.532 22.959-143.769 22.968-143.888 22.972-144.125 22.981-144.116 22.577-144.111 22.375-144.102 21.971-146.001 22.039-146.95 22.069-148.849 22.122-148.884 24.14-148.902 25.148-148.938 27.165-143.823 27.022-138.71 26.816-133.598 26.547-133.531 24.529-133.498 23.52-133.431 21.501M-155.992 17.241C-153.961 14.788-152.939 13.557-150.884 11.086-150.403 11.075-150.163 11.069-149.683 11.056-149.657 9.443-149.643 8.636-149.616 7.023-152.507 7.099-153.952 7.129-156.843 7.173-156.858 8.786-156.866 9.593-156.881 11.205-156.684 11.202-156.585 11.201-156.388 11.198-157.316 12.312-157.779 12.869-158.702 13.979-159.608 12.891-160.063 12.346-160.974 11.254-160.777 11.253-160.678 11.252-160.481 11.25-160.471 9.637-160.466 8.831-160.457 7.218-163.347 7.245-164.792 7.251-167.683 7.246-167.681 8.858-167.68 9.665-167.678 11.278-167.199 11.279-166.959 11.279-166.48 11.279-164.461 13.699-163.458 14.905-161.464 17.309-163.483 19.745-164.486 20.959-166.481 23.38-166.954 23.38-167.191 23.379-167.665 23.379-167.663 24.992-167.662 25.798-167.66 27.411-164.827 27.416-163.411 27.411-160.577 27.384-160.568 25.771-160.563 24.964-160.553 23.351-160.748 23.353-160.846 23.354-161.041 23.356-160.128 22.248-159.67 21.693-158.753 20.582-157.853 21.671-157.404 22.214-156.509 23.3-156.704 23.303-156.802 23.304-156.997 23.307-157.012 24.921-157.02 25.727-157.035 27.34-154.202 27.297-152.785 27.268-149.952 27.193-149.925 25.58-149.912 24.773-149.885 23.159-150.359 23.172-150.596 23.178-151.071 23.19-153.027 20.818-154.011 19.628-155.992 17.241M-168.888 22.366C-170.787 22.359-171.736 22.352-173.635 22.331-173.632 22.734-173.631 22.936-173.628 23.34-175.999 23.313-177.185 23.294-179.555 23.245-179.576 21.632-179.587 20.826-179.608 19.213-176.751 19.272-175.322 19.293-172.465 19.32-172.475 17.706-172.48 16.899-172.489 15.285-175.358 15.259-176.792 15.237-179.66 15.178-179.681 13.564-179.691 12.758-179.712 11.144-177.313 11.194-176.113 11.213-173.714 11.24-173.711 11.643-173.709 11.845-173.707 12.248-171.788 12.269-170.829 12.276-168.911 12.284-168.916 10.267-168.918 9.259-168.923 7.242-174.545 7.221-180.165 7.127-185.786 6.958-185.755 8.571-185.74 9.378-185.71 10.991-185.229 11.005-184.989 11.012-184.509 11.026-184.438 15.06-184.366 19.095-184.295 23.128-184.769 23.115-185.007 23.108-185.481 23.094-185.45 24.708-185.435 25.515-185.405 27.129-179.896 27.295-174.387 27.388-168.876 27.408-168.881 25.391-168.883 24.383-168.888 22.366M-193.284 15.969C-193.211 18.709-193.175 20.08-193.102 22.82-193.577 22.8-193.814 22.79-194.288 22.769-194.243 24.383-194.221 25.19-194.177 26.804-191.817 26.908-189.458 26.999-187.095 27.076-187.129 25.462-187.145 24.656-187.178 23.042-187.653 23.027-187.89 23.019-188.364 23.002-188.47 18.161-188.522 15.74-188.628 10.898-188.148 10.915-187.908 10.923-187.427 10.939-187.461 9.325-187.477 8.519-187.511 6.905-189.643 6.835-191.776 6.755-193.906 6.664-196.045 10.922-197.103 13.047-199.193 17.287-199.282 14.546-199.326 13.175-199.415 10.433-198.935 10.458-198.695 10.47-198.215 10.494-198.266 8.88-198.291 8.073-198.341 6.459-200.748 6.339-203.156 6.206-205.561 6.059-205.499 7.674-205.468 8.481-205.407 10.096-204.927 10.125-204.687 10.14-204.208 10.168-204.028 15.013-203.938 17.436-203.758 22.281-204.232 22.253-204.469 22.238-204.943 22.21-204.881 23.825-204.85 24.632-204.789 26.247-202.7 26.374-200.611 26.491-198.524 26.598-196.452 22.355-195.404 20.229-193.284 15.969M-222.518 20.891C-224.882 20.68-226.064 20.569-228.427 20.336-228.526 18.718-228.576 17.91-228.676 16.292-226.304 16.526-225.117 16.637-222.743 16.849-222.653 18.465-222.608 19.274-222.518 20.891M-219.939 25.139C-219.041 24.41-218.59 24.046-217.688 23.314-217.811 20.889-217.873 19.677-217.997 17.252-218.988 16.366-219.484 15.922-220.479 15.033-219.57 14.305-219.115 13.941-218.203 13.211-218.286 11.594-218.327 10.786-218.409 9.169-217.93 9.209-217.691 9.228-217.211 9.266-217.292 7.65-217.332 6.842-217.413 5.226-219.816 5.035-222.22 4.829-224.621 4.611-224.529 6.228-224.483 7.036-224.391 8.653-223.913 8.697-223.674 8.718-223.197 8.761-223.106 10.378-223.061 11.187-222.971 12.804-225.354 12.591-226.545 12.48-228.926 12.245-229.026 10.627-229.076 9.818-229.175 8.2-228.697 8.247-228.458 8.27-227.979 8.317-228.077 6.699-228.126 5.89-228.224 4.273-230.624 4.041-233.023 3.795-235.423 3.536-235.314 5.154-235.26 5.963-235.15 7.582-234.672 7.634-234.433 7.66-233.955 7.71-233.633 12.567-233.472 14.996-233.151 19.852-233.623 19.802-233.86 19.777-234.332 19.726-234.223 21.345-234.168 22.154-234.059 23.773-229.356 24.282-224.648 24.737-219.939 25.139M-247.642 18.143C-248.034 13.278-248.23 10.846-248.621 5.981-246.237 6.29-245.044 6.439-242.657 6.726-242.294 11.587-242.112 14.018-241.749 18.879-242.221 18.822-242.457 18.794-242.929 18.736-242.806 20.357-242.744 21.167-242.622 22.788-240.274 23.074-237.923 23.348-235.573 23.607-235.684 21.988-235.74 21.179-235.852 19.559-236.323 19.507-236.559 19.481-237.03 19.428-237.427 13.759-237.626 10.924-238.023 5.255-239.037 4.338-239.544 3.879-240.562 2.957-244.877 2.456-247.033 2.186-251.341 1.611-252.231 2.294-252.674 2.635-253.56 3.315-253.076 8.995-252.835 11.835-252.351 17.514-252.823 17.45-253.058 17.417-253.529 17.351-253.389 18.974-253.319 19.786-253.179 21.408-250.836 21.735-248.49 22.048-246.142 22.348-246.27 20.727-246.335 19.916-246.463 18.295-246.935 18.235-247.171 18.204-247.642 18.143M-259.949 16.424C-262.3 16.071-263.475 15.89-265.823 15.515-266.303 10.637-266.543 8.198-267.022 3.319-264.645 3.698-263.456 3.882-261.076 4.239-260.625 9.113-260.4 11.55-259.949 16.424M-255.067 19.139C-255.638 12.645-255.923 9.398-256.494 2.905-257.52 1.958-258.034 1.483-259.063 .532-263.366-.096-265.515-.428-269.809-1.129-270.681-.472-271.116-.144-271.984 .51-271.315 7.019-270.98 10.273-270.311 16.782-269.29 17.752-268.781 18.236-267.764 19.202-263.555 19.889-261.448 20.215-257.231 20.831-256.367 20.155-255.935 19.817-255.067 19.139M-279.198 6.827C-279.449 4.555-279.575 3.418-279.826 1.146-279.351 1.231-279.114 1.274-278.639 1.359-278.818-.27-278.907-1.084-279.085-2.713-281.467-3.138-283.846-3.576-286.222-4.028-286.033-2.397-285.938-1.582-285.749 .048-285.276 .138-285.039 .183-284.566 .272-284.304 2.547-284.174 3.684-283.912 5.958-285.73 8.177-286.631 9.283-288.419 11.49-288.887 11.397-289.121 11.351-289.589 11.258-289.391 12.891-289.292 13.707-289.094 15.34-286.301 15.895-284.903 16.165-282.106 16.689-282.293 15.058-282.386 14.243-282.573 12.613-282.765 12.577-282.861 12.559-283.054 12.522-282.287 11.579-281.903 11.107-281.132 10.161-280.109 11.437-279.599 12.074-278.581 13.347-278.774 13.312-278.87 13.294-279.063 13.26-278.882 14.889-278.791 15.704-278.61 17.333-275.81 17.841-274.409 18.087-271.606 18.562-271.775 16.935-271.86 16.121-272.03 14.494-272.499 14.414-272.734 14.374-273.203 14.294-275.589 11.318-276.788 9.825-279.198 6.827M-305.911 7.785C-308.238 7.258-309.4 6.988-311.723 6.439-312.424 1.517-312.775-.944-313.476-5.866-311.125-5.31-309.949-5.038-307.594-4.504-306.921 .412-306.584 2.869-305.911 7.785M-300.985 10.867C-301.852 4.32-302.286 1.047-303.153-5.5-304.206-6.525-304.734-7.038-305.79-8.068-310.049-9.016-312.175-9.508-316.421-10.53-317.246-9.936-317.657-9.64-318.477-9.05-317.512-2.48-317.03 .804-316.065 7.374-315.019 8.422-314.497 8.944-313.453 9.988-309.292 10.989-307.207 11.472-303.033 12.401-302.216 11.789-301.807 11.482-300.985 10.867M-318.044 3.919C-319.901 3.46-320.828 3.227-322.682 2.753-322.619 3.165-322.588 3.371-322.525 3.782-322.757 3.723-322.873 3.693-323.104 3.634-323.86-1.301-324.238-3.769-324.994-8.703-324.525-8.583-324.291-8.523-323.822-8.404-324.072-10.048-324.197-10.87-324.447-12.514-326.799-13.113-329.151-13.725-331.498-14.35-331.237-12.703-331.107-11.88-330.845-10.233-330.377-10.108-330.143-10.046-329.675-9.922-328.897-4.982-328.508-2.511-327.729 2.43-327.961 2.369-328.076 2.338-328.307 2.277-328.373 1.865-328.405 1.658-328.47 1.246-330.321 .755-331.246 .506-333.095 0-332.76 2.062-332.592 3.093-332.257 5.155-327.278 6.517-322.286 7.816-317.283 9.054-317.587 7-317.74 5.973-318.044 3.919M-52.324 140.062C-54.189 140.418-55.122 140.592-56.99 140.933-57.034 141.345-57.056 141.551-57.1 141.964-59.431 142.389-60.598 142.597-62.932 143-62.765 141.354-62.682 140.531-62.515 138.886-59.702 138.4-58.297 138.149-55.488 137.63-55.31 135.981-55.221 135.157-55.043 133.508-57.863 134.029-59.274 134.281-62.098 134.769-61.932 133.123-61.848 132.3-61.681 130.654-61.208 130.573-60.972 130.532-60.499 130.449-60.33 128.803-60.246 127.98-60.077 126.333-62.448 126.747-64.821 127.148-67.198 127.534-67.355 129.179-67.434 130.001-67.591 131.645-67.117 131.568-66.881 131.529-66.407 131.451-66.805 135.563-67.203 139.676-67.601 143.787-68.069 143.864-68.303 143.903-68.771 143.979-68.929 145.623-69.007 146.445-69.165 148.09-63.732 147.206-58.309 146.248-52.898 145.215-52.668 143.154-52.553 142.123-52.324 140.062M-75.32 145.008C-77.66 145.362-78.831 145.534-81.173 145.865-80.761 140.94-80.555 138.478-80.143 133.552-77.772 133.217-76.587 133.043-74.218 132.684-74.659 137.614-74.879 140.078-75.32 145.008M-70.835 146.335C-70.218 139.758-69.909 136.47-69.292 129.894-70.163 129.223-70.599 128.887-71.475 128.213-75.753 128.878-77.895 129.192-82.182 129.782-83.201 130.734-83.71 131.208-84.726 132.155-85.245 138.718-85.505 141.999-86.024 148.561-85.154 149.256-84.719 149.603-83.853 150.295-79.65 149.716-77.551 149.409-73.357 148.757-72.35 147.79-71.846 147.306-70.835 146.335M-108.479 149.105C-108.95 149.15-109.185 149.172-109.656 149.216-109.564 147.581-109.519 146.763-109.427 145.127-107.065 144.905-105.885 144.789-103.525 144.544-103.626 146.181-103.676 146.999-103.777 148.636-104.247 148.685-104.482 148.709-104.952 148.756-105.051 150.393-105.1 151.211-105.199 152.848-102.858 152.61-100.518 152.358-98.177 152.093-98.067 150.455-98.011 149.636-97.901 147.998-98.371 148.051-98.606 148.078-99.076 148.13-98.75 143.217-98.588 140.76-98.262 135.847-97.786 135.794-97.548 135.767-97.072 135.713-96.962 134.075-96.907 133.256-96.796 131.618-99.182 131.889-101.572 132.146-103.96 132.389-104.059 134.025-104.109 134.844-104.208 136.48-103.732 136.432-103.494 136.408-103.018 136.358-103.119 137.995-103.169 138.813-103.27 140.45-105.64 140.696-106.825 140.813-109.197 141.035-109.105 139.399-109.059 138.581-108.968 136.946-108.491 136.901-108.252 136.878-107.776 136.833-107.682 135.197-107.636 134.379-107.542 132.742-110.411 133.017-111.846 133.146-114.716 133.388-114.798 135.023-114.839 135.84-114.922 137.475-114.445 137.435-114.206 137.415-113.729 137.374-113.981 142.28-114.107 144.733-114.359 149.639-114.83 149.68-115.066 149.7-115.537 149.739-115.62 151.374-115.661 152.192-115.743 153.827-113.399 153.63-111.055 153.419-108.713 153.195-108.619 151.559-108.573 150.741-108.479 149.105M-130.191 154.868C-125.966 154.614-123.854 154.469-119.633 154.141-118.656 153.251-118.166 152.805-117.186 151.911-117.096 150.072-117.051 149.152-116.962 147.313-118.851 147.467-119.795 147.54-121.685 147.679-121.73 148.701-121.753 149.212-121.798 150.233-124.153 150.407-125.331 150.488-127.688 150.638-127.5 145.736-127.406 143.285-127.218 138.383-124.833 138.231-123.641 138.149-121.257 137.973-121.302 138.995-121.325 139.507-121.37 140.529-119.467 140.389-118.516 140.315-116.614 140.16-116.524 138.32-116.479 137.4-116.39 135.56-117.306 134.82-117.765 134.45-118.685 133.707-122.991 134.041-125.146 134.189-129.457 134.448-130.444 135.322-130.936 135.758-131.92 136.628-132.14 143.162-132.25 146.429-132.47 152.963-131.556 153.727-131.1 154.108-130.191 154.868M-145.88 151.529C-145.78 146.632-145.73 144.183-145.63 139.286-143.242 139.205-142.049 139.159-139.662 139.054-139.79 143.953-139.854 146.402-139.982 151.3-140.454 151.32-140.69 151.331-141.162 151.35-141.203 152.983-141.224 153.799-141.264 155.431-138.916 155.333-136.565 155.221-134.218 155.096-134.166 153.463-134.139 152.647-134.087 151.014-134.558 151.039-134.793 151.051-135.264 151.076-135.088 145.359-135 142.501-134.824 136.785-135.755 136.017-136.221 135.633-137.156 134.862-141.47 135.067-143.628 135.151-147.944 135.281-148.917 136.126-149.403 136.547-150.372 137.388-150.462 143.101-150.507 145.958-150.597 151.671-151.069 151.683-151.306 151.689-151.778 151.7-151.802 153.332-151.814 154.148-151.837 155.78-149.488 155.723-147.138 155.652-144.786 155.568-144.751 153.936-144.734 153.12-144.699 151.487-145.171 151.504-145.407 151.513-145.88 151.529M-158.218 151.823C-160.578 151.855-161.758 151.865-164.119 151.875-164.107 146.979-164.101 144.53-164.089 139.634-161.701 139.625-160.506 139.614-158.118 139.581-158.158 144.478-158.178 146.926-158.218 151.823M-153.525 153.78C-153.441 147.251-153.399 143.987-153.315 137.458-154.262 136.663-154.736 136.264-155.687 135.465-160.003 135.541-162.162 135.56-166.479 135.561-167.438 136.376-167.917 136.783-168.873 137.595-168.858 144.123-168.85 147.387-168.836 153.915-167.892 154.734-167.421 155.143-166.481 155.958-162.249 155.958-160.133 155.939-155.902 155.865-154.953 155.033-154.478 154.616-153.525 153.78M-170.396 150.847C-172.286 150.835-173.231 150.825-175.121 150.799-175.117 151.207-175.116 151.411-175.112 151.819-175.348 151.816-175.466 151.814-175.703 151.811-175.747 146.915-175.769 144.467-175.813 139.571-175.335 139.579-175.096 139.582-174.618 139.588-174.631 137.957-174.637 137.141-174.65 135.509-177.047 135.478-179.447 135.432-181.844 135.373-181.82 137.005-181.808 137.821-181.784 139.453-181.306 139.465-181.067 139.47-180.589 139.481-180.522 144.377-180.489 146.825-180.422 151.721-180.658 151.716-180.776 151.713-181.012 151.708-181.018 151.299-181.021 151.095-181.026 150.687-182.917 150.642-183.862 150.616-185.751 150.557-185.713 152.597-185.694 153.617-185.655 155.657-180.564 155.818-175.47 155.914-170.377 155.946-170.385 153.907-170.388 152.887-170.396 150.847M-207.783 144.37C-206.568 144.452-205.961 144.492-204.746 144.568-205.263 146.981-205.519 148.187-206.028 150.598-206.726 148.108-207.077 146.863-207.783 144.37M-198.578 138.806C-198.1 138.831-197.861 138.843-197.383 138.867-197.432 137.235-197.457 136.418-197.506 134.786-199.937 134.664-202.364 134.528-204.794 134.378-204.733 136.011-204.703 136.827-204.642 138.461-204.165 138.49-203.926 138.505-203.449 138.533-203.623 139.339-203.71 139.741-203.884 140.546-205.917 140.423-206.933 140.357-208.965 140.216-209.201 139.384-209.319 138.969-209.556 138.137-209.08 138.17-208.842 138.186-208.366 138.219-208.432 136.585-208.465 135.768-208.532 134.135-210.961 133.969-213.386 133.79-215.813 133.596-215.735 135.231-215.696 136.048-215.618 137.683-215.141 137.721-214.903 137.74-214.426 137.777-212.493 144.443-211.54 147.773-209.659 154.424-206.627 154.64-205.111 154.739-202.077 154.917-200.704 148.477-200.004 145.255-198.578 138.806M-237.343 147.751C-237.627 143.655-237.912 139.558-238.197 135.462-235.821 135.74-234.632 135.874-232.254 136.129-231.94 141.041-231.783 143.497-231.47 148.409-233.82 148.157-234.995 148.025-237.343 147.751M-228.868 152.748C-227.982 152.027-227.538 151.665-226.648 150.94-227.036 144.393-227.229 141.12-227.617 134.573-228.619 133.66-229.121 133.203-230.127 132.286-234.904 131.792-239.678 131.243-244.445 130.638-244.321 132.277-244.26 133.097-244.136 134.736-243.661 134.796-243.423 134.826-242.948 134.886-242.644 138.984-242.34 143.083-242.037 147.181-242.506 147.122-242.741 147.093-243.211 147.033-243.087 148.673-243.026 149.493-242.902 151.133-238.23 151.726-233.55 152.265-228.868 152.748M-255.601 145.333C-255.959 141.228-256.318 137.121-256.676 133.016-254.307 133.366-253.121 133.535-250.749 133.862-250.348 138.785-250.147 141.247-249.745 146.17-252.089 145.846-253.26 145.679-255.601 145.333M-247.076 150.589C-246.207 149.894-245.772 149.546-244.899 148.848-245.404 142.287-245.657 139.007-246.163 132.446-247.177 131.503-247.685 131.03-248.703 130.082-253.467 129.444-258.227 128.75-262.978 128.001-262.826 129.644-262.749 130.466-262.596 132.109-262.123 132.184-261.886 132.221-261.412 132.295-261.035 136.403-260.657 140.513-260.28 144.621-260.748 144.548-260.983 144.511-261.451 144.438-261.298 146.082-261.221 146.904-261.069 148.548-256.411 149.283-251.745 149.963-247.076 150.589M-273.881 136.284C-272.679 136.498-272.078 136.604-270.875 136.812-271.226 139.177-271.4 140.359-271.744 142.725-272.596 140.15-273.023 138.862-273.881 136.284M-265.161 131.699C-264.687 131.776-264.451 131.814-263.977 131.89-264.132 130.246-264.209 129.424-264.364 127.78-266.774 127.394-269.18 126.995-271.586 126.58-271.42 128.226-271.337 129.049-271.171 130.694-270.698 130.776-270.461 130.816-269.988 130.897-270.108 131.686-270.167 132.08-270.286 132.869-272.3 132.525-273.306 132.348-275.317 131.987-275.605 131.127-275.748 130.697-276.036 129.836-275.565 129.921-275.329 129.963-274.858 130.048-275.03 128.401-275.116 127.578-275.288 125.931-277.693 125.502-280.093 125.059-282.493 124.601-282.31 126.249-282.218 127.074-282.034 128.723-281.562 128.813-281.326 128.857-280.854 128.946-278.517 135.846-277.361 139.29-275.073 146.17-272.073 146.716-270.571 146.979-267.566 147.487-266.63 141.173-266.149 138.015-265.161 131.699" fill="#fde9c8"/>
</g>
</g>
</svg>
